<svg width="92" height="67" viewBox="0 0 92 67" fill="none" xmlns="http://www.w3.org/2000/svg">
<rect y="33.234" width="47" height="47" transform="rotate(-45 0 33.234)" fill="black"/>
<rect x="25" y="33.234" width="47" height="47" transform="rotate(-45 25 33.234)" fill="black"/>
<path d="M39.368 41.535C39.0993 41.1837 38.872 40.8013 38.686 40.388C38.5 39.954 38.3037 39.4373 38.097 38.838C38.0557 38.7347 37.9317 38.4247 37.725 37.908C37.539 37.3913 37.322 36.947 37.074 36.575C35.772 36.761 34.7077 36.854 33.881 36.854C33.4263 36.854 32.92 36.8437 32.362 36.823C31.8247 36.7817 31.4217 36.761 31.153 36.761C30.1197 36.6783 29.293 36.637 28.673 36.637C28.425 36.9677 28.208 37.319 28.022 37.691C27.8567 38.063 27.6397 38.621 27.371 39.365C26.999 40.4397 26.6787 41.2043 26.41 41.659C26.224 41.969 25.8623 42.124 25.325 42.124C24.8703 42.124 24.4467 42.031 24.054 41.845C23.682 41.6383 23.496 41.3593 23.496 41.008C23.6613 40.2227 23.9197 39.396 24.271 38.528C24.643 37.6393 25.17 36.4613 25.852 34.994L27.092 31.956C27.774 30.22 28.394 28.732 28.952 27.492C29.5307 26.252 30.285 24.7847 31.215 23.09C31.339 22.842 31.5457 22.6353 31.835 22.47C32.1243 22.284 32.4447 22.191 32.796 22.191C33.1887 22.191 33.4677 22.222 33.633 22.284C33.819 22.3253 33.9637 22.408 34.067 22.532C34.1703 22.6353 34.3253 22.8627 34.532 23.214C35.2347 24.3093 35.834 25.4357 36.33 26.593C36.8467 27.7503 37.4977 29.352 38.283 31.398L38.934 33.041C39.5127 34.529 40.0087 35.7793 40.422 36.792C40.856 37.784 41.3313 38.6933 41.848 39.52C42.1787 40.0573 42.344 40.4293 42.344 40.636C42.344 41.132 42.189 41.5143 41.879 41.783C41.5897 42.031 41.2073 42.155 40.732 42.155C40.1327 42.155 39.678 41.9483 39.368 41.535ZM36.175 34.033C35.8443 33.3303 35.369 32.111 34.749 30.375C34.1083 28.515 33.4677 27.0373 32.827 25.942C32.4343 26.934 31.8557 28.2153 31.091 29.786C30.5743 30.7573 29.9853 32.1627 29.324 34.002C30.6467 34.1673 32.0727 34.25 33.602 34.25C34.6973 34.25 35.555 34.1777 36.175 34.033Z" fill="white"/>
<path d="M66.941 39.644C67.1477 39.7473 67.3027 39.8817 67.406 40.047C67.53 40.2123 67.592 40.45 67.592 40.76C67.592 41.1527 67.437 41.473 67.127 41.721C66.8377 41.9483 66.4967 42.062 66.104 42.062C65.6493 42.062 65.1327 41.9483 64.554 41.721C63.3967 41.2043 62.26 40.2537 61.144 38.869C60.0487 37.4637 58.726 35.4487 57.176 32.824C55.998 33.7333 54.7993 34.5807 53.58 35.366C53.58 35.8 53.5903 36.3063 53.611 36.885C53.6523 37.443 53.673 37.8563 53.673 38.125C53.7143 39.3237 53.735 40.1193 53.735 40.512C53.735 40.8633 53.6213 41.2043 53.394 41.535C53.1667 41.845 52.8257 42 52.371 42C51.7097 42 51.2343 41.8967 50.945 41.69C50.6557 41.4627 50.48 41.1423 50.418 40.729C50.2527 39.6957 50.17 38.7037 50.17 37.753C50.17 36.6783 50.2527 35.1283 50.418 33.103C50.5833 31.1603 50.666 29.7033 50.666 28.732C50.666 28.36 50.6453 27.8227 50.604 27.12C50.5833 26.562 50.5213 26.0453 50.418 25.57C50.3353 24.9087 50.294 24.4437 50.294 24.175C50.294 23.5137 50.4387 23.0383 50.728 22.749C51.0173 22.4597 51.4617 22.315 52.061 22.315C52.5157 22.315 52.8877 22.4493 53.177 22.718C53.487 22.966 53.6627 23.307 53.704 23.741C53.8073 25.4977 53.859 26.8513 53.859 27.802C53.8383 28.3187 53.797 29.0627 53.735 30.034C53.6937 30.9847 53.6523 31.584 53.611 31.832C54.3137 31.4393 55.688 30.313 57.734 28.453C59.8007 26.5723 61.268 25.0947 62.136 24.02L62.539 23.555C62.8697 23.121 63.1487 22.8213 63.376 22.656C63.6033 22.4907 63.9133 22.408 64.306 22.408C64.6987 22.408 65.05 22.5423 65.36 22.811C65.6907 23.059 65.856 23.3587 65.856 23.71C65.856 24.392 65.5047 25.0843 64.802 25.787C63.0867 27.5643 61.3713 29.2177 59.656 30.747C62.074 35.273 64.5023 38.2387 66.941 39.644Z" fill="white"/>
</svg>
